:FULLY-SPECIFIED
:FORCE-ALL-JOINTS-BE-3DOF
:DEGREES
1733
root -5.14294 15.6924 27.3529 907.012 -4.20154 189.065
lfemur -37.4455 9.53082 -14.2108
ltibia 58.7614 -0 0
lfoot -16.7651 23.6944 -0.211972
ltoes -10.6624 0 0
rfemur -26.9746 -22.0308 20.6241
rtibia 58.6927 -0 0
rfoot -12.6627 -24.8375 -0.00799036
rtoes 15.4981 -0 0
lowerback 16.9555 2.7395 -5.86282
upperback -0.137989 2.54759 1.93819
thorax -10.0669 1.5177 4.81795
lowerneck 5.56279 -14.9754 -17.0903
upperneck -3.37451 -21.9191 25.0627
head 2.93524 -11.5483 9.41925
lclavicle -7.0581e-14 2.93705e-14 -7.72263e-30
lhumerus -53.8549 -34.5226 115.068
lradius 97.8905 -0 0
lwrist 46.4252 0 0
lhand -5.41427 36.6222 -0.0229537
lfingers 7.12502 -0 0
lthumb 19.1028 61.5185 -0.0664999
rclavicle -1.50577e-14 5.51279e-14 7.78575e-30
rhumerus 41.7249 43.8015 -29.1918
rradius 129.887 -0 0
rwrist -13.9517 0 0
rhand -1.52645 -30.1427 0.099495
rfingers 7.12502 -0 0
rthumb 35.393 -52.5433 0.02187
1734
root -5.07133 15.6953 27.4047 906.857 -1.86935 188.913
lfemur -36.783 8.00689 -13.0825
ltibia 58.4136 -0 0
lfoot -16.4459 22.8303 -0.204699
ltoes -12.117 0 0
rfemur -26.7415 -22.4405 20.5638
rtibia 58.0981 -0 0
rfoot -12.833 -24.7675 -0.00745746
rtoes 14.8461 -0 0
lowerback 17.2609 2.96851 -6.27006
upperback -0.0550889 2.71517 1.68398
thorax -10.1785 1.60551 4.72027
lowerneck 5.7937 -14.8495 -17.1428
upperneck -3.50305 -21.7959 25.2421
head 2.86336 -11.5213 9.52942
lclavicle -6.7123e-14 3.27641e-14 -7.62022e-30
lhumerus -55.465 -32.2471 114.222
lradius 98.6545 -0 0
lwrist 46.1697 0 0
lhand -5.32039 36.0429 -0.0162221
lfingers 7.12502 -0 0
lthumb 19.2465 60.9722 -0.0523021
rclavicle -1.89893e-14 5.88317e-14 6.67725e-30
rhumerus 40.8159 43.2053 -29.9465
rradius 130.322 -0 0
rwrist -12.6652 0 0
rhand -2.12599 -30.329 0.0924114
rfingers 7.12502 -0 0
rthumb 34.7643 -52.7356 0.0833296
1735
root -5.0026 15.6931 27.4508 906.605 0.452724 188.693
lfemur -36.168 6.50788 -12.0024
ltibia 58.0779 -0 0
lfoot -16.1334 21.984 -0.192911
ltoes -13.6329 0 0
rfemur -26.5666 -22.7466 20.5174
rtibia 57.6575 -0 0
rfoot -12.9971 -24.7001 -0.00674756
rtoes 14.1288 -0 0
lowerback 17.5868 3.01528 -6.77701
upperback 0.0840382 2.90707 1.43637
thorax -10.2347 1.8312 4.65699
lowerneck 5.19921 -14.9772 -17.142
upperneck -2.80662 -22.0071 24.9708
head 3.16955 -11.561 9.33131
lclavicle -6.3706e-14 3.61175e-14 -7.31783e-30
lhumerus -56.9997 -30.0981 113.365
lradius 99.4364 -0 0
lwrist 45.7586 0 0
lhand -5.24274 35.5633 -0.0099322
lfingers 7.12502 -0 0
lthumb 19.3734 60.4894 -0.0386127
rclavicle -2.26163e-14 6.22486e-14 5.42926e-30
rhumerus 39.4098 42.2393 -31.1055
rradius 130.649 -0 0
rwrist -11.2068 0 0
rhand -2.7029 -30.5082 0.0837547
rfingers 7.12502 -0 0
rthumb 33.766 -53.0423 0.176523
1736
root -4.93618 15.6849 27.4933 906.356 2.88088 188.491
lfemur -35.6029 5.05046 -10.978
ltibia 57.7577 -0 0
lfoot -15.831 21.1646 -0.177099
ltoes -15.1925 0 0
rfemur -26.4567 -22.9381 20.4878
rtibia 57.3838 -0 0
rfoot -13.1528 -24.6362 -0.00589548
rtoes 13.3553 -0 0
lowerback 17.8359 3.25463 -7.21675
upperback 0.239642 3.10647 1.18556
thorax -10.2382 1.94052 4.56917
lowerneck 5.0822 -14.9186 -17.2223
upperneck -2.77047 -21.9667 25.1424
head 3.22302 -11.5482 9.38972
lclavicle -6.03709e-14 3.93905e-14 -6.82985e-30
lhumerus -58.4325 -28.1161 112.525
lradius 100.224 -0 0
lwrist 45.2035 0 0
lhand -5.18398 35.2002 -0.00473705
lfingers 7.12502 -0 0
lthumb 19.4815 60.0778 -0.0260966
rclavicle -2.5871e-14 6.53147e-14 4.12523e-30
rhumerus 37.6101 40.9213 -32.5732
rradius 130.854 -0 0
rwrist -9.59548 0 0
rhand -3.25159 -30.6786 0.0738471
rfingers 7.12502 -0 0
rthumb 32.4389 -53.4522 0.292056
1737
root -4.87878 15.677 27.5277 906.081 5.38179 188.288
lfemur -35.0894 3.65151 -10.0164
ltibia 57.4566 -0 0
lfoot -15.542 20.3809 -0.157932
ltoes -16.7784 0 0
rfemur -26.4186 -23.0044 20.4775
rtibia 57.2897 0 0
rfoot -13.298 -24.5766 -0.00494412
rtoes 12.5352 -0 0
lowerback 18.0927 3.47601 -7.55515
upperback 0.395348 3.30143 0.920164
thorax -10.2384 2.04256 4.4065
lowerneck 4.78649 -14.839 -17.266
upperneck -2.7243 -21.8635 25.2447
head 3.28246 -11.492 9.41406
lclavicle -5.71589e-14 4.25427e-14 -6.17977e-30
lhumerus -59.7343 -26.3399 111.731
lradius 101.006 -0 0
lwrist 44.5169 0 0
lhand -5.14676 34.9702 -0.00125268
lfingers 7.12502 -0 0
lthumb 19.569 59.7447 -0.0153976
rclavicle -2.86857e-14 6.79664e-14 2.85704e-30
rhumerus 35.5216 39.2687 -34.2518
rradius 130.925 0 0
rwrist -7.85043 0 0
rhand -3.76642 -30.8384 0.0630671
rfingers 7.12502 0 0
rthumb 30.8234 -53.9544 0.419751
1738
root -4.82456 15.677 27.5518 905.92 8.1417 188.185
lfemur -34.6285 2.32805 -9.1245
ltibia 57.178 -0 0
lfoot -15.2697 19.6419 -0.136234
ltoes -18.3731 0 0
rfemur -26.4286 -23.0545 20.5038
rtibia 57.2875 -0 0
rfoot -13.4306 -24.5221 -0.00394301
rtoes 11.6778 -0 0
lowerback 18.1473 3.7815 -7.82434
upperback 0.41161 3.62441 0.693202
thorax -10.2983 2.2033 4.21388
lowerneck 4.83236 -15.3702 -17.6264
upperneck -2.40623 -21.5909 25.391
head 3.39777 -10.8633 9.54642
lclavicle -5.41109e-14 4.55339e-14 -5.39947e-30
lhumerus -60.8745 -24.8065 111.013
lradius 101.77 -0 0
lwrist 43.7104 0 0
lhand -5.13376 34.8898 0
lfingers 7.12502 -0 0
lthumb 19.6338 59.4974 -0.00712948
rclavicle -3.09927e-14 7.01398e-14 1.72044e-30
rhumerus 33.243 37.3025 -36.0494
rradius 130.636 -0 0
rwrist -5.99075 0 0
rhand -4.24189 -30.9858 0.0518358
rfingers 7.12502 -0 0
rthumb 28.9601 -54.5373 0.549289
1739
root -4.77087 15.6656 27.5742 905.822 11.0507 188.06
lfemur -34.2208 1.09717 -8.30926
ltibia 56.9252 -0 0
lfoot -15.0175 18.9566 -0.112973
ltoes -19.959 0 0
rfemur -26.4577 -23.2 20.5802
rtibia 57.2812 -0 0
rfoot -13.5486 -24.4736 -0.00294658
rtoes 10.7923 -0 0
lowerback 18.1753 4.11266 -8.0569
upperback 0.404331 3.98639 0.436181
thorax -10.3702 2.38008 3.95492
lowerneck 4.56405 -15.2804 -17.7385
upperneck -2.26564 -21.4678 25.4714
head 3.48055 -10.7797 9.57948
lclavicle -5.12679e-14 4.8324e-14 -4.52823e-30
lhumerus -61.8203 -23.5519 110.402
lradius 102.504 -0 0
lwrist 42.7961 0 0
lhand -5.16119 34.8745 0.00112072
lfingers 7.12502 -0 0
lthumb 19.6741 59.3436 -0.00184398
rclavicle -3.27244e-14 7.17712e-14 8.09791e-31
rhumerus 30.8611 35.0494 -37.8852
rradius 129.795 -0 0
rwrist -4.03554 0 0
rhand -4.67209 -31.1192 0.0406192
rfingers 7.12502 -0 0
rthumb 26.8898 -55.189 0.670818
